M48
INCH,TZ
T4C.03937
T6C.04724
%
M72
G05
G90
T4
X00940Y02436
X00640
X00640Y01889
X00940
X00940Y01353
X00640
X00660Y00888
X00960
X00974Y00348
X00674
T6
X01375Y02313
Y02550
X01370Y02041
Y01805
X01374Y01540
Y01304
X01375Y00996
Y00760
X01384Y00459
Y00223
X00173
Y00459
X00168Y00710
Y00946
X00179Y01250
Y01486
Y01730
Y01967
X00198Y02300
Y02536
M30
