G04 DipTrace 4.0.0.5*
G04 pistas isoc.gbr*
%MOMM*%
G04 #@! TF.FileFunction,Copper,L2,Bot*
G04 #@! TF.Part,Single*
G04 #@! TA.AperFunction,Conductor*
%ADD13C,1.3*%
G04 #@! TA.AperFunction,ComponentPad*
%ADD14C,3.0*%
%ADD17C,2.5*%
%ADD20C,2.5*%
%FSLAX35Y35*%
G04*
G71*
G90*
G75*
G01*
G04 Bottom*
%LPD*%
X784230Y6475623D2*
D13*
X1040534Y6731927D1*
X3493486D1*
X3773240Y6452173D1*
Y6441620D1*
X2651567Y6186860D2*
X2996807Y5841620D1*
X3773240D1*
X1801913Y885027D2*
X1483963Y567077D1*
X762217D1*
X1889567Y3435758D2*
X1352835D1*
X1229437Y3312360D1*
X786013D1*
X1889567Y6186860D2*
X1888920Y4797167D1*
X786013Y3312360D2*
Y3117803D1*
X394800Y2726590D1*
Y2265103D1*
X784230Y1875673D1*
Y1929663D1*
X796753Y4584140D2*
X1161757Y4949143D1*
Y5498097D1*
X784230Y5875623D1*
Y1929663D2*
X1513940D1*
X1839477Y2255200D1*
X762217Y567077D2*
X373150Y956143D1*
Y1518583D1*
X784230Y1929663D1*
X786013Y3312360D2*
X354334Y3744039D1*
Y4141721D1*
X796753Y4584140D1*
X784230Y5875623D2*
X1355747D1*
X1666983Y6186860D1*
X1889567D1*
X3823327Y4994533D2*
Y5040530D1*
X3652687Y5211170D1*
X2701683D1*
X2291653Y5621200D1*
Y6210994D1*
X2042849Y6459798D1*
X1414081D1*
X1126158Y6171875D1*
X527895D1*
X336383Y5980363D1*
Y5390360D1*
X542603Y5184140D1*
X796753D1*
X2650920Y4797167D2*
X3420693D1*
X3823327Y4394533D1*
X786013Y3912360D2*
X2366703D1*
X2504443Y3774620D1*
X3823327D1*
X2651567Y3435777D2*
X2912723Y3174620D1*
X3823327D1*
X3850150Y2404443D2*
Y2430043D1*
X3444563Y2835630D1*
X1070943D1*
X784230Y2548917D1*
Y2529663D1*
X2601477Y2255200D2*
X3052233Y1804443D1*
X3850150D1*
X762217Y1167077D2*
X2532377D1*
X2532787Y1166667D1*
X3837630D1*
X2563913Y885027D2*
X2882273Y566667D1*
X3837630D1*
D14*
X784230Y5875623D3*
Y6475623D3*
X796753Y4584140D3*
Y5184140D3*
X786013Y3312360D3*
Y3912360D3*
X784230Y1929663D3*
Y2529663D3*
X762217Y567077D3*
Y1167077D3*
D17*
X1889567Y6186860D3*
D20*
X2651567D3*
D17*
X1888920Y4797167D3*
D20*
X2650920D3*
D17*
X1889567Y3435758D3*
D20*
X2651567Y3435775D3*
D17*
X1839477Y2255200D3*
D20*
X2601477D3*
D17*
X1801913Y885027D3*
D20*
X2563913D3*
D14*
X3823327Y4394533D3*
Y4994533D3*
Y3174620D3*
Y3774620D3*
X3850150Y1804443D3*
Y2404443D3*
X3837630Y566667D3*
Y1166667D3*
X3773240Y5841620D3*
Y6441620D3*
M02*
